<?xml version="1.0" encoding="UTF-8"?>
<svg xmlns="http://www.w3.org/2000/svg" xmlns:xlink="http://www.w3.org/1999/xlink" width="330.1pt" height="59.4pt" viewBox="0 0 330.1 59.4" version="1.1">
<g id="surface1">
<path style=" stroke:none;fill-rule:evenodd;fill:rgb(86.71875%,16.868591%,10.984802%);fill-opacity:1;" d="M 24.773438 53.832031 C 17.277344 53.832031 9.777344 53.832031 2.277344 53.832031 C 0.890625 53.953125 0.0507813 53.402344 0.164063 51.667969 C 0.164063 39.59375 0.164063 27.519531 0.164063 15.445313 C 0.0429688 13.992188 0.785156 13.203125 2.613281 13.246094 L 16.25 13.367188 C 22.148438 13.371094 26.929688 18.15625 26.929688 24.054688 C 26.929688 25.773438 26.492188 27.585938 25.699219 29.109375 C 30.875 30.941406 34.335938 35.835938 34.335938 41.328125 C 34.335938 47.179688 30.417969 52.304688 24.773438 53.832031 Z M 9.257813 22.082031 L 15.1875 22.082031 C 16.851563 22.082031 18.210938 23.441406 18.210938 25.105469 C 18.210938 26.769531 16.851563 28.128906 15.1875 28.128906 L 9.257813 28.128906 Z M 9.421875 36.824219 L 21.621094 36.824219 C 23.988281 36.824219 25.921875 38.761719 25.921875 41.121094 C 25.921875 43.492188 23.988281 45.421875 21.621094 45.421875 L 9.421875 45.421875 Z M 9.421875 36.824219 "/>
<path style=" stroke:none;fill-rule:evenodd;fill:rgb(86.71875%,16.868591%,10.984802%);fill-opacity:1;" d="M 67.332031 27.894531 C 65.183594 24.554688 61.484375 22.128906 57.515625 22.128906 C 51.070313 22.128906 45.84375 27.355469 45.84375 33.796875 C 45.84375 40.246094 51.070313 45.472656 57.515625 45.472656 C 59.148438 45.472656 60.738281 45.128906 62.191406 44.496094 C 67.925781 41.988281 65.246094 38.589844 69.921875 42.855469 C 74.269531 46.816406 74.542969 47.289063 68.160156 51.191406 C 64.996094 53.125 61.320313 54.191406 57.515625 54.191406 C 46.253906 54.191406 37.125 45.0625 37.125 33.796875 C 37.125 22.539063 46.253906 13.410156 57.515625 13.410156 C 68.777344 13.410156 77.90625 22.539063 77.90625 33.796875 C 77.90625 38.476563 76.1875 37.027344 71.40625 37.027344 C 63.035156 37.027344 54.667969 37.027344 46.296875 37.027344 C 45.101563 33.957031 45.339844 30.910156 47.449219 27.894531 Z M 67.332031 27.894531 "/>
<path style=" stroke:none;fill-rule:evenodd;fill:rgb(86.71875%,16.868591%,10.984802%);fill-opacity:1;" d="M 41.796875 37.035156 L 52.261719 37.035156 L 52.261719 27.894531 L 41.796875 27.894531 Z M 41.796875 37.035156 "/>
<path style=" stroke:none;fill-rule:evenodd;fill:rgb(0%,0%,0%);fill-opacity:1;" d="M 115.328125 28.238281 C 114.863281 20.496094 108.449219 14.464844 100.699219 14.464844 C 97.257813 14.464844 93.492188 15.039063 90.851563 17.253906 L 90.851563 24.691406 C 92.625 23.289063 94.816406 22.527344 97.074219 22.527344 C 102.613281 22.527344 107.042969 25.894531 107.042969 31.433594 C 107.042969 38.5625 107.042969 45.691406 107.042969 52.820313 C 107.03125 54.460938 107.828125 54.648438 108.855469 54.652344 C 110.523438 54.652344 112.191406 54.652344 113.859375 54.652344 C 114.777344 54.65625 115.359375 54.25 115.328125 52.953125 Z M 115.328125 28.238281 "/>
<path style=" stroke:none;fill-rule:evenodd;fill:rgb(0%,0%,0%);fill-opacity:1;" d="M 80.480469 15.132813 L 80.480469 53.042969 C 80.480469 54.242188 81.078125 54.835938 82.273438 54.835938 L 87.5625 54.835938 C 88.757813 54.835938 89.355469 54.242188 89.355469 53.042969 L 89.355469 15.132813 C 89.355469 13.9375 88.757813 13.339844 87.5625 13.339844 L 82.273438 13.339844 C 81.078125 13.339844 80.480469 13.9375 80.480469 15.132813 Z M 80.480469 15.132813 "/>
<path style=" stroke:none;fill-rule:evenodd;fill:rgb(0%,0%,0%);fill-opacity:1;" d="M 145.984375 52.652344 C 145.984375 54.117188 145.984375 55.578125 145.984375 57.039063 C 145.84375 58.796875 146.898438 59.078125 148.265625 58.984375 L 152.464844 58.984375 C 155.226563 58.984375 154.671875 59.308594 154.671875 56.417969 C 154.671875 51.425781 154.671875 46.433594 154.671875 41.4375 C 154.738281 40.164063 154.300781 39.3125 152.820313 39.335938 L 149.164063 39.335938 C 146.222656 39.335938 145.988281 38.585938 146.042969 41.210938 C 146.066406 42.441406 145.839844 42.894531 143.945313 43.941406 C 142.265625 44.867188 140.367188 45.359375 138.421875 45.359375 C 132.105469 45.359375 126.984375 40.242188 126.984375 33.917969 C 126.984375 27.605469 132.105469 22.488281 138.421875 22.488281 C 139.945313 22.488281 141.425781 22.789063 142.792969 23.355469 C 149.417969 26.09375 145.308594 29.667969 151.976563 24.890625 C 156.035156 21.984375 156.335938 21.976563 151.542969 17.960938 C 147.90625 14.910156 143.261719 13.171875 138.390625 13.171875 C 127.085938 13.171875 117.921875 22.339844 117.921875 33.644531 C 117.921875 44.949219 127.085938 54.113281 138.390625 54.113281 C 140.992188 54.113281 143.566406 53.617188 145.984375 52.652344 Z M 145.984375 52.652344 "/>
<path style=" stroke:none;fill-rule:evenodd;fill:rgb(0%,0%,0%);fill-opacity:1;" d="M 185.617188 52.5 C 183.03125 53.652344 180.226563 54.25 177.382813 54.25 C 166.199219 54.25 157.132813 45.1875 157.132813 34.003906 C 157.132813 22.820313 166.199219 13.753906 177.382813 13.753906 C 180.191406 13.753906 182.96875 14.335938 185.539063 15.46875 C 187.316406 15.46875 189.09375 15.46875 190.871094 15.46875 C 191.453125 15.453125 191.691406 15.777344 191.71875 16.3125 L 191.71875 41.328125 C 191.71875 44.554688 191.324219 44.164063 193.148438 46.796875 C 193.738281 47.65625 194.328125 48.511719 194.921875 49.367188 C 195.542969 50.167969 195.464844 50.746094 194.988281 51.25 C 193.65625 52.320313 192.324219 53.390625 190.996094 54.457031 C 190.382813 54.960938 189.757813 54.976563 189.121094 54.234375 L 188.015625 53.011719 C 186.726563 51.59375 187.277344 51.765625 185.617188 52.5 Z M 180.652344 45.164063 C 179.667969 45.429688 178.652344 45.566406 177.625 45.566406 C 171.1875 45.566406 165.96875 40.347656 165.96875 33.910156 C 165.96875 27.472656 171.1875 22.253906 177.625 22.253906 C 178.703125 22.253906 179.773438 22.402344 180.804688 22.695313 C 182.910156 23.289063 182.742188 23.160156 182.714844 25.105469 L 182.453125 42.164063 C 182.417969 44.4375 182.925781 44.554688 180.652344 45.164063 Z M 180.652344 45.164063 "/>
<path style=" stroke:none;fill-rule:evenodd;fill:rgb(0%,0%,0%);fill-opacity:1;" d="M 197.488281 40.386719 C 197.488281 27.527344 197.488281 14.664063 197.488281 1.804688 C 197.449219 0.652344 197.867188 -0.0625 199.027344 -0.0664063 C 201.160156 -0.0664063 203.289063 -0.0664063 205.421875 -0.0664063 C 206.617188 -0.078125 206.886719 0.691406 206.855469 1.710938 L 207.027344 37.847656 C 207.261719 40.367188 206.878906 40.519531 208.570313 42.40625 C 209.066406 42.960938 209.621094 43.453125 210.222656 43.878906 C 215.695313 47.765625 217.082031 43.074219 216.230469 50.203125 C 215.574219 55.679688 214.667969 55.375 208.46875 53.078125 C 203.851563 51.363281 199.933594 48.105469 198.089844 43.53125 C 197.515625 42.101563 197.6875 41.976563 197.488281 40.386719 Z M 197.488281 40.386719 "/>
<path style=" stroke:none;fill-rule:evenodd;fill:rgb(0%,0%,0%);fill-opacity:1;" d="M 244.160156 31.644531 C 243.558594 30.046875 243.25 28.363281 243.25 26.660156 C 243.25 18.855469 249.574219 12.535156 257.375 12.535156 C 259.710938 12.535156 262.011719 13.113281 264.070313 14.222656 C 276.019531 19.664063 282.75 28.992188 285.53125 41.269531 C 285.617188 41.839844 285.660156 42.417969 285.660156 42.996094 C 285.660156 49.492188 280.398438 54.75 273.90625 54.75 C 267.417969 54.75 262.15625 49.492188 262.15625 42.996094 C 262.15625 42.257813 262.226563 41.515625 262.367188 40.785156 C 262.96875 36.789063 264.351563 33.027344 266.183594 29.390625 C 267.554688 26.664063 268.175781 27.046875 265.355469 25.167969 C 263.164063 23.714844 260.621094 22.679688 257.824219 22.023438 C 257.4375 21.902344 257.03125 21.839844 256.625 21.839844 C 254.398438 21.839844 252.59375 23.644531 252.59375 25.871094 C 252.433594 30.734375 255.277344 35.722656 253.898438 40.367188 C 251.96875 48.664063 244.578125 54.535156 236.0625 54.535156 C 228.539063 54.535156 221.929688 49.957031 219.144531 43.238281 C 217.8125 40.015625 218.046875 38.277344 218.046875 34.910156 C 218.046875 28.765625 218.046875 22.621094 218.046875 16.476563 C 217.921875 14.789063 218.402344 13.683594 220.128906 13.746094 C 221.679688 13.746094 223.230469 13.746094 224.78125 13.746094 C 226.453125 13.679688 226.941406 14.859375 226.914063 16.589844 L 227.128906 31.199219 C 227.183594 34.910156 226.683594 38.746094 229.050781 41.894531 C 230.75 44.148438 233.453125 45.597656 236.46875 45.597656 C 240.527344 45.597656 244.113281 42.964844 245.324219 39.09375 C 245.570313 36.613281 245.207031 34.128906 244.160156 31.644531 Z M 276.617188 42.605469 C 276.632813 42.722656 276.640625 42.839844 276.640625 42.957031 C 276.640625 44.46875 275.414063 45.695313 273.902344 45.695313 C 272.390625 45.695313 271.164063 44.46875 271.164063 42.957031 C 271.164063 42.753906 271.1875 42.554688 271.230469 42.355469 C 271.875 39.9375 272.636719 37.546875 273.957031 35.304688 C 275.351563 37.707031 276.070313 40.152344 276.617188 42.605469 Z M 276.617188 42.605469 "/>
<path style=" stroke:none;fill-rule:evenodd;fill:rgb(86.71875%,16.868591%,10.984802%);fill-opacity:1;" d="M 303.363281 24.40625 C 302.503906 17.683594 296.785156 12.648438 290.007813 12.648438 C 288.515625 12.648438 287.03125 12.894531 285.621094 13.382813 C 281.832031 14.980469 278.539063 17.03125 275.300781 19.132813 C 277.574219 20.789063 279.433594 22.832031 281.003906 25.132813 C 283.210938 24.035156 285.507813 23.027344 287.632813 21.835938 C 288.34375 21.394531 289.167969 21.160156 290.007813 21.160156 C 292.492188 21.160156 294.503906 23.167969 294.503906 25.660156 C 294.433594 30.539063 292.863281 35.394531 293.28125 40.316406 C 294.976563 48.796875 302.425781 54.910156 311.078125 54.910156 C 319.121094 54.910156 326.078125 49.640625 328.40625 42.164063 C 329.0625 40.046875 329.039063 38.953125 329.03125 36.804688 C 329.003906 30.910156 328.976563 25.015625 328.949219 19.121094 C 328.921875 13.332031 330.125 13.808594 324.695313 13.808594 C 319.285156 13.808594 320.488281 13.34375 320.488281 19.121094 C 320.488281 24.539063 320.488281 29.960938 320.488281 35.378906 C 320.488281 36.921875 320.589844 38.082031 320.121094 39.585938 C 318.914063 43.460938 315.300781 46.207031 311.109375 46.207031 C 307.355469 46.207031 303.957031 43.984375 302.457031 40.539063 C 300.996094 35.121094 303.660156 29.824219 303.363281 24.40625 Z M 303.363281 24.40625 "/>
</g>
</svg>
